<?xml version="1.0"?>
<svg xmlns="http://www.w3.org/2000/svg" xmlns:xlink="http://www.w3.org/1999/xlink" viewBox="0 0 512 512" width="512" height="512"><linearGradient id="a" gradientUnits="userSpaceOnUse" x1="381.579" x2="381.579" y1="10" y2="502.016"><stop offset="0" stop-color="#00efd1"/><stop offset="1" stop-color="#00acea"/></linearGradient><linearGradient id="b" x1="303.5" x2="303.5" xlink:href="#a" y1="10" y2="502.016"/><linearGradient id="c" x1="256" x2="256" xlink:href="#a" y1="10" y2="502.016"/><linearGradient id="d" x1="303.255" x2="303.255" xlink:href="#a" y1="10" y2="502.016"/><linearGradient id="e" x1="240.5" x2="240.5" xlink:href="#a" y1="10" y2="502.016"/><path d="m423.613 354h-84.067a10 10 0 0 0 0 20h84.067a10 10 0 1 0 0-20z" fill="url(#a)"/><path d="m423.613 385h-84.067a10 10 0 0 0 0 20h84.067a10 10 0 1 0 0-20z" fill="url(#a)"/><path d="m183 186h241a10 10 0 0 0 10-10v-71a10 10 0 0 0 -10-10h-241a10 10 0 0 0 -10 10v71a10 10 0 0 0 10 10zm10-71h221v51h-221z" fill="url(#b)"/><path d="m469.041 55h-332.093c-5.523 0-9.948 4.89-9.948 10.412v187.588h-84.041a10.235 10.235 0 0 0 -9.959 10.311v136.283a57.116 57.116 0 0 0 56.953 57.406h337.315c28.548 0 51.732-23.637 51.732-52.185v-339.403c0-5.522-4.436-10.412-9.959-10.412zm-342.041 344.594a36.757 36.757 0 0 1 -37.013 36.994 36.594 36.594 0 0 1 -36.987-36.994v-126.594h74zm332 5.221c0 17.52-14.212 32.185-31.732 32.185h-293.815c8.734-11 13.547-23.683 13.547-37.406v-324.594h312z" fill="url(#c)"/><g fill="url(#d)"><path d="m182.9 217h240.713a10 10 0 1 0 0-20h-240.713a10 10 0 0 0 0 20z"/><path d="m182.9 249h240.713a10 10 0 1 0 0-20h-240.713a10 10 0 0 0 0 20z"/><path d="m182.9 280h240.713a10 10 0 1 0 0-20h-240.713a10 10 0 0 0 0 20z"/></g><path d="m423.613 291h-84.067a10 10 0 0 0 0 20h84.067a10 10 0 1 0 0-20z" fill="url(#a)"/><path d="m423.613 323h-84.067a10 10 0 0 0 0 20h84.067a10 10 0 1 0 0-20z" fill="url(#a)"/><path d="m298 291h-115a10 10 0 0 0 -10 10v94a10 10 0 0 0 10 10h115a10 10 0 0 0 10-10v-94a10 10 0 0 0 -10-10zm-10 94h-95v-74h95z" fill="url(#e)"/></svg>
